<svg xmlns="http://www.w3.org/2000/svg" width="113.439" height="113.44" viewBox="0 0 113.439 113.44">
  <defs>
    <style>
      .cls-1 {
        fill: #fff;
        fill-rule: evenodd;
      }
    </style>
  </defs>
  <path id="Shape_1_copy_3" data-name="Shape 1 copy 3" class="cls-1" d="M959,3746.25l-56.717,56.72L959,3859.69l56.72-56.72Zm-13.452,92.66-3.469-3.47a2,2,0,0,1,.515-1.77c0.885-.78.413,1.86,1,2.82s1.653-.12,2.066.36A3.356,3.356,0,0,1,945.548,3838.91Zm-0.121-4.34a7.089,7.089,0,0,1,1.3-7.62,12.52,12.52,0,0,0-.708,2.34s1-3.24,2.714-2.82a0.459,0.459,0,0,1,.177.48,6.505,6.505,0,0,0-.531,1.86,25.658,25.658,0,0,0-.413,5.28C948.141,3836.13,946.253,3836.31,945.427,3834.57ZM959,3852.36l-11.28-11.28c3.512-2.85,4.567-.31,6.028,1.41,1.475,1.74,5.252,1.52,5.252,1.52s3.777,0.22,5.252-1.52c1.46-1.72,2.516-4.26,6.028-1.41Zm-13.986-69.83a6.1,6.1,0,0,1,3.934,2.44,6.019,6.019,0,0,1,0,6.28c-1.063,1.68-3.738,1.48-4.446-1s1.534-3.12,1.889-4.68S945.014,3782.53,945.014,3782.53Zm1.208-7.91a1.068,1.068,0,0,1,.9-1.02c1.2,0,.9,1.28,1.8,2.17a1.567,1.567,0,0,1,.708,1.8c-0.322.95-2.029,0.88-2.866-.49A3.394,3.394,0,0,1,946.222,3774.62Zm0.473,21.49c1.594-1.89,2.94-.9,3.1-0.72a0.886,0.886,0,0,1,.019.74,4.968,4.968,0,0,0,.63,3.76s1,1.83-1.594,1.74S945.1,3798,946.7,3796.11Zm21.492,0.02a0.878,0.878,0,0,1,.019-0.74c0.159-.18,1.5-1.17,3.1.72s0.443,5.43-2.154,5.52-1.593-1.74-1.593-1.74A4.973,4.973,0,0,0,968.187,3796.13Zm0.865-11.16a6.1,6.1,0,0,1,3.934-2.44s-1.731,1.48-1.377,3.04,2.6,2.2,1.889,4.68-3.384,2.68-4.446,1A6.019,6.019,0,0,1,969.052,3784.97Zm0.02-9.2c0.9-.89.608-2.17,1.8-2.17a1.067,1.067,0,0,1,.9,1.02,3.39,3.39,0,0,1-.547,2.46c-0.838,1.37-2.545,1.44-2.867.49A1.569,1.569,0,0,1,969.072,3775.77Zm0.964,58.32a25.706,25.706,0,0,0-.414-5.28,6.505,6.505,0,0,0-.531-1.86,0.459,0.459,0,0,1,.177-0.48c1.712-.42,2.715,2.82,2.715,2.82a12.52,12.52,0,0,0-.708-2.34,7.093,7.093,0,0,1,1.3,7.62C971.747,3836.31,969.858,3836.13,970.036,3834.09Zm5.885,1.35-3.47,3.47a3.362,3.362,0,0,1-.114-2.06c0.413-.48,1.475.6,2.066-0.36s0.117-3.6,1-2.82A2,2,0,0,1,975.921,3835.44Zm9.4-19.29c6.433-1.2,8.026-4.38,8.97-4.98a5.288,5.288,0,0,1,2.71-.38l2.809-3.42c1.051-3.29.087-5.2,0.087-5.2s-5.429-.6-5.311,1.8-1.534,5.52-1.534,5.52c0.472-.06,2.065-0.48,2.065-0.48a15.551,15.551,0,0,1-12.393,6.42c-3.953,1.62-2.3,8.82-2.3,8.82l-0.708-.36a5.919,5.919,0,0,0,.531,1.98,5.967,5.967,0,0,1-2.656-4.62,4.97,4.97,0,0,0-.826,1.38c-0.472-.3-0.944-0.66-0.944-0.66a10.526,10.526,0,0,0,.531,2.34,11.79,11.79,0,0,1-2.243-1.62,25.553,25.553,0,0,0,.886,2.88,17.063,17.063,0,0,1-2.007-1.32l0.59,2.04c-8.734-6.72-3.895-18.84-3.895-18.84l0.119,3.84a28.341,28.341,0,0,1,6.255-13.08,17.178,17.178,0,0,0-.886,5.82,32.968,32.968,0,0,1,7.967-6.84,17.565,17.565,0,0,1,11.033-2.87l-4.143-4.14a3.564,3.564,0,0,0-2.877,1.55c-1.18,1.68-5.016,3.06-4.19,2.58a2.87,2.87,0,0,0,1.535-1.62,0.938,0.938,0,0,0-.708-0.96s1.357-.24,1.829-3.06a7.421,7.421,0,0,0-.144-3.05l-3.879-3.88a17.342,17.342,0,0,0-.147,6.35c0.826,6.16-4.131,10.32-4.131,10.32a26.211,26.211,0,0,0-1.181-10.88,11.419,11.419,0,0,1,1.511-9.74L959,3759.15l-18.645,18.64a11.419,11.419,0,0,1,1.511,9.74,26.2,26.2,0,0,0-1.18,10.88s-4.957-4.16-4.131-10.32a17.314,17.314,0,0,0-.148-6.35l-3.878,3.88a7.4,7.4,0,0,0-.144,3.05c0.472,2.82,1.829,3.06,1.829,3.06a0.938,0.938,0,0,0-.708.96,2.871,2.871,0,0,0,1.534,1.62c0.826,0.48-3.01-.9-4.19-2.58a3.564,3.564,0,0,0-2.877-1.55l-4.143,4.14a17.565,17.565,0,0,1,11.033,2.87,32.927,32.927,0,0,1,7.967,6.84,17.164,17.164,0,0,0-.885-5.82,28.341,28.341,0,0,1,6.255,13.08l0.118-3.84s4.839,12.12-3.895,18.84l0.591-2.04a17.157,17.157,0,0,1-2.007,1.32,25.411,25.411,0,0,0,.885-2.88,11.769,11.769,0,0,1-2.242,1.62,10.526,10.526,0,0,0,.531-2.34s-0.472.36-.944,0.66a4.957,4.957,0,0,0-.827-1.38,5.964,5.964,0,0,1-2.655,4.62,5.919,5.919,0,0,0,.531-1.98l-0.708.36s1.652-7.2-2.3-8.82a15.552,15.552,0,0,1-12.393-6.42s1.594,0.42,2.066.48c0,0-1.653-3.12-1.535-5.52s-5.311-1.8-5.311-1.8-0.963,1.91.087,5.2l2.809,3.42a5.293,5.293,0,0,1,2.711.38c0.944,0.6,2.537,3.78,8.97,4.98a13.051,13.051,0,0,1-7.809-.65l13.369,16.28-28.808-28.81L959,3753.4l49.57,49.57-28.811,28.81,13.369-16.28A13.048,13.048,0,0,1,985.32,3816.15Zm0.17-14.8a6.193,6.193,0,0,1,.086,1.02,6.533,6.533,0,0,1-.2,1.56,0.981,0.981,0,0,0-.342-0.06,1.1,1.1,0,0,0-.463,2.1,8.988,8.988,0,0,1-1.087,1.6,9.1,9.1,0,0,1-2.054-4.58,11.387,11.387,0,0,0-4.514,4.1,7.378,7.378,0,0,0,9.6,2.16c6.216-2.96,4.564-8.8,4.564-8.8A26.932,26.932,0,0,0,985.49,3801.35Zm-54.011,7.9a7.379,7.379,0,0,0,9.6-2.16,11.387,11.387,0,0,0-4.514-4.1,6.848,6.848,0,0,1-.228,1.18,1.374,1.374,0,0,0-.356-0.06,1.1,1.1,0,0,0-.5,2.08,8.765,8.765,0,0,1-.965,1.38,8.766,8.766,0,0,1-2.087-5.2,6.3,6.3,0,0,1,.085-1.02,26.921,26.921,0,0,0-5.593-.9S925.263,3806.29,931.479,3809.25Z" transform="translate(-902.281 -3746.25)"/>
</svg>
