<svg xmlns="http://www.w3.org/2000/svg" width="256.375" height="79" viewBox="0 0 256.375 79">
  <defs>
    <style>
      .cls-1 {
        fill: #ffa800;
      }

      .cls-1, .cls-2 {
        fill-rule: evenodd;
      }

      .cls-2 {
        fill: #f2f2f2;
      }
    </style>
  </defs>
  <path id="Shape_1_copy" data-name="Shape 1 copy" class="cls-1" d="M234,14.908l-39.5,39.5,39.5,39.5,39.5-39.5Zm-9.368,64.529-2.416-2.416a1.391,1.391,0,0,1,.359-1.232c0.616-.543.287,1.3,0.7,1.964s1.151-.084,1.439.251A2.338,2.338,0,0,1,224.632,79.437Zm-0.085-3.021a4.94,4.94,0,0,1,.9-5.306,8.711,8.711,0,0,0-.493,1.629s0.7-2.256,1.891-1.964a0.32,0.32,0,0,1,.123.335,4.523,4.523,0,0,0-.37,1.295,17.834,17.834,0,0,0-.287,3.677C226.438,77.5,225.123,77.627,224.547,76.416ZM234,88.8l-7.856-7.855c2.446-1.989,3.181-.218,4.2.982S234,82.99,234,82.99s2.63,0.153,3.658-1.059,1.752-2.971,4.2-.982Zm-9.74-48.629a4.25,4.25,0,0,1,2.74,1.7,4.194,4.194,0,0,1,0,4.373,1.7,1.7,0,0,1-3.1-.7c-0.493-1.727,1.069-2.173,1.316-3.259A2.606,2.606,0,0,0,224.26,40.175Zm0.842-5.512a0.741,0.741,0,0,1,.628-0.707c0.832,0,.628.889,1.256,1.505a1.1,1.1,0,0,1,.493,1.254c-0.224.661-1.413,0.616-2-.342A2.352,2.352,0,0,1,225.1,34.663Zm0.329,14.969c1.11-1.316,2.047-.629,2.158-0.5a0.618,0.618,0,0,1,.013.515,3.465,3.465,0,0,0,.438,2.619s0.7,1.275-1.109,1.212S224.321,50.949,225.431,49.633ZM240.4,49.646a0.614,0.614,0,0,1,.013-0.515c0.111-.128,1.048-0.815,2.158.5s0.308,3.781-1.5,3.844-1.11-1.212-1.11-1.212A3.463,3.463,0,0,0,240.4,49.646Zm0.6-7.771a4.25,4.25,0,0,1,2.74-1.7,2.606,2.606,0,0,0-.959,2.117c0.247,1.087,1.809,1.532,1.315,3.259a1.7,1.7,0,0,1-3.1.7A4.194,4.194,0,0,1,241,41.875Zm0.014-6.413c0.628-.616.424-1.505,1.256-1.505a0.741,0.741,0,0,1,.628.707,2.352,2.352,0,0,1-.381,1.71c-0.583.958-1.772,1-2,.342A1.094,1.094,0,0,1,241.014,35.462Zm0.671,40.62A17.834,17.834,0,0,0,241.4,72.4a4.557,4.557,0,0,0-.37-1.295,0.32,0.32,0,0,1,.123-0.335c1.192-.293,1.891,1.964,1.891,1.964a8.692,8.692,0,0,0-.494-1.629,4.939,4.939,0,0,1,.905,5.306C242.877,77.627,241.562,77.5,241.685,76.081Zm4.1,0.939-2.416,2.416a2.338,2.338,0,0,1-.08-1.433c0.288-.334,1.028.418,1.439-0.251s0.082-2.507.7-1.964A1.391,1.391,0,0,1,245.784,77.02Zm6.546-13.432c4.48-.835,5.589-3.05,6.247-3.468a3.686,3.686,0,0,1,1.887-.269l1.956-2.381a5.066,5.066,0,0,0,.061-3.617s-3.781-.418-3.7,1.254a9.284,9.284,0,0,1-1.068,3.844c0.329-.042,1.438-0.335,1.438-0.335a10.83,10.83,0,0,1-8.631,4.471c-2.753,1.128-1.6,6.142-1.6,6.142l-0.493-.251a4.118,4.118,0,0,0,.37,1.379,4.155,4.155,0,0,1-1.849-3.217,3.45,3.45,0,0,0-.575.961c-0.329-.209-0.658-0.46-0.658-0.46a7.331,7.331,0,0,0,.37,1.63,8.2,8.2,0,0,1-1.562-1.128,17.783,17.783,0,0,0,.617,2.006,11.886,11.886,0,0,1-1.4-.919l0.411,1.421c-6.082-4.68-2.712-13.12-2.712-13.12l0.082,2.674a19.738,19.738,0,0,1,4.356-9.109,11.959,11.959,0,0,0-.616,4.052,22.837,22.837,0,0,1,5.548-4.762,12.223,12.223,0,0,1,7.684-2L255.607,45.5a2.487,2.487,0,0,0-2,1.086c-0.822,1.17-3.493,2.131-2.918,1.8a2,2,0,0,0,1.068-1.128,0.652,0.652,0,0,0-.493-0.668s0.945-.167,1.274-2.131a5.169,5.169,0,0,0-.1-2.127l-2.7-2.7a12.06,12.06,0,0,0-.1,4.424c0.575,4.29-2.877,7.186-2.877,7.186a18.24,18.24,0,0,0-.822-7.577,7.945,7.945,0,0,1,1.052-6.783L234,23.89,221.016,36.874a7.951,7.951,0,0,1,1.052,6.783,18.24,18.24,0,0,0-.822,7.577s-3.453-2.9-2.877-7.186a12.082,12.082,0,0,0-.1-4.424l-2.7,2.7a5.169,5.169,0,0,0-.1,2.127c0.328,1.964,1.274,2.131,1.274,2.131a0.654,0.654,0,0,0-.494.668,2,2,0,0,0,1.069,1.128c0.575,0.334-2.1-.627-2.918-1.8a2.489,2.489,0,0,0-2-1.086l-2.885,2.885a12.225,12.225,0,0,1,7.684,2,22.858,22.858,0,0,1,5.548,4.762,11.944,11.944,0,0,0-.617-4.052,19.734,19.734,0,0,1,4.357,9.109l0.082-2.674s3.37,8.44-2.712,13.12l0.411-1.421a11.886,11.886,0,0,1-1.4.919,17.783,17.783,0,0,0,.617-2.006,8.2,8.2,0,0,1-1.562,1.128,7.331,7.331,0,0,0,.37-1.63s-0.329.251-.658,0.46a3.45,3.45,0,0,0-.575-0.961,4.155,4.155,0,0,1-1.85,3.217,4.118,4.118,0,0,0,.37-1.379l-0.493.251s1.151-5.014-1.6-6.142a10.828,10.828,0,0,1-8.63-4.471s1.109,0.293,1.438.335a9.284,9.284,0,0,1-1.068-3.844c0.082-1.671-3.7-1.254-3.7-1.254a5.069,5.069,0,0,0,.06,3.617l1.957,2.381a3.687,3.687,0,0,1,1.887.269c0.658,0.418,1.767,2.632,6.247,3.468a9.118,9.118,0,0,1-5.438-.453l9.311,11.335L199.48,54.406,234,19.886l34.52,34.52L248.457,74.469l9.311-11.335A9.118,9.118,0,0,1,252.33,63.588Zm0.118-10.308a4.373,4.373,0,0,1,.06.712,4.547,4.547,0,0,1-.136,1.084,0.757,0.757,0,0,0-.238-0.038,0.765,0.765,0,0,0-.322,1.459,6.491,6.491,0,0,1-.757,1.117,6.334,6.334,0,0,1-1.431-3.189,7.891,7.891,0,0,0-3.144,2.854,5.14,5.14,0,0,0,6.686,1.5,5.283,5.283,0,0,0,3.178-6.128A18.252,18.252,0,0,0,252.448,53.28Zm-37.614,5.5a5.14,5.14,0,0,0,6.686-1.5,7.891,7.891,0,0,0-3.144-2.854,4.788,4.788,0,0,1-.159.822,0.765,0.765,0,0,0-.6,1.4,6.25,6.25,0,0,1-.672.965,6.127,6.127,0,0,1-1.453-3.621,4.373,4.373,0,0,1,.06-0.712,18.263,18.263,0,0,0-3.9-.625A5.283,5.283,0,0,0,214.834,58.783Z" transform="translate(-194.5 -14.906)"/>
  <path id="Shape_2_copy" data-name="Shape 2 copy" class="cls-2" d="M354.485,64.7h10.671V63.476H354.485V64.7Zm-24.722-1.541a2.984,2.984,0,0,1-1.469-2.269,34.042,34.042,0,0,1-.357-6.007,34.044,34.044,0,0,1,.357-6.007,2.985,2.985,0,0,1,1.469-2.268,9.632,9.632,0,0,1,3.852-.542,20.04,20.04,0,0,1,3.4.285V45.214a11.181,11.181,0,0,0-1.712-.272q-1.056-.1-2.026-0.1a10.042,10.042,0,0,0-4.352.7,3.858,3.858,0,0,0-1.84,2.739,31.7,31.7,0,0,0-.485,6.606,31.894,31.894,0,0,0,.485,6.634,3.819,3.819,0,0,0,1.826,2.725,10.212,10.212,0,0,0,4.366.685,19.863,19.863,0,0,0,3.823-.314v-1.2a19.481,19.481,0,0,1-3.481.286A9.622,9.622,0,0,1,329.763,63.162Zm-23.125-17.62a15.955,15.955,0,0,0-9.345,0,3.551,3.551,0,0,0-1.769,2.654,38.109,38.109,0,0,0-.4,6.691,38.113,38.113,0,0,0,.4,6.692,3.551,3.551,0,0,0,1.769,2.654,15.971,15.971,0,0,0,9.345,0,3.567,3.567,0,0,0,1.755-2.654,38.24,38.24,0,0,0,.4-6.692,38.236,38.236,0,0,0-.4-6.691A3.567,3.567,0,0,0,306.638,45.542Zm0.47,15.565a2.713,2.713,0,0,1-1.355,2.154,10.787,10.787,0,0,1-3.781.443,10.92,10.92,0,0,1-3.795-.443,2.7,2.7,0,0,1-1.369-2.154,37.187,37.187,0,0,1-.343-6.221,37.19,37.19,0,0,1,.343-6.221,2.7,2.7,0,0,1,1.369-2.154,10.921,10.921,0,0,1,3.795-.443,10.788,10.788,0,0,1,3.781.443,2.713,2.713,0,0,1,1.355,2.154,37.19,37.19,0,0,1,.343,6.221A37.187,37.187,0,0,1,307.108,61.107ZM383.9,45.071h-1.341V64.7h9.7V63.476H383.9v-18.4Zm35.864,0.471a15.955,15.955,0,0,0-9.345,0,3.551,3.551,0,0,0-1.769,2.654,38.109,38.109,0,0,0-.4,6.691,38.113,38.113,0,0,0,.4,6.692,3.551,3.551,0,0,0,1.769,2.654,15.971,15.971,0,0,0,9.345,0,3.567,3.567,0,0,0,1.755-2.654,38.24,38.24,0,0,0,.4-6.692,38.236,38.236,0,0,0-.4-6.691A3.567,3.567,0,0,0,419.761,45.542Zm0.471,15.565a2.716,2.716,0,0,1-1.356,2.154,10.787,10.787,0,0,1-3.781.443,10.92,10.92,0,0,1-3.8-.443,2.7,2.7,0,0,1-1.369-2.154,37.187,37.187,0,0,1-.343-6.221,37.19,37.19,0,0,1,.343-6.221,2.7,2.7,0,0,1,1.369-2.154,10.921,10.921,0,0,1,3.8-.443,10.788,10.788,0,0,1,3.781.443,2.716,2.716,0,0,1,1.356,2.154,37.334,37.334,0,0,1,.342,6.221A37.332,37.332,0,0,1,420.232,61.107Zm18.06-16.036V46.3h5.621V64.7h1.342V46.3h5.621V45.071H438.292ZM354.485,55.4h10.671V54.174H354.485V55.4Zm0-9.1h10.671V45.071H354.485V46.3Z" transform="translate(-194.5 -14.906)"/>
</svg>
