<svg xmlns="http://www.w3.org/2000/svg" width="80" height="60" viewBox="0 0 80 60">
  <defs>
    <style>
      .cls-1 {
        fill: #fff;
        fill-rule: evenodd;
      }
    </style>
  </defs>
  <path class="cls-1" d="M70.476,49.845a0.151,0.151,0,0,1-.072-0.105c0-.036-0.013-0.1-0.019-0.181l-0.014-.3a0.562,0.562,0,0,0-.082-0.317,0.456,0.456,0,0,0-.14-0.112,0.65,0.65,0,0,0,.177-0.174,0.632,0.632,0,0,0,.1-0.36,0.584,0.584,0,0,0-.349-0.577,1.031,1.031,0,0,0-.448-0.08H68.535v2.353h0.408V49.029h0.643a0.745,0.745,0,0,1,.254.036,0.261,0.261,0,0,1,.129.255l0.021,0.375c0.009,0.087.012,0.15,0.019,0.184a0.28,0.28,0,0,0,.027.089l0.017,0.027h0.457V49.862ZM69.905,48.6a0.573,0.573,0,0,1-.31.073H68.943V48h0.694a0.542,0.542,0,0,1,.228.041,0.276,0.276,0,0,1,.143.279A0.3,0.3,0,0,1,69.905,48.6Zm1.028-1.234a2.124,2.124,0,1,0,.615,1.5A2.1,2.1,0,0,0,70.933,47.364Zm-1.5,3.257a1.761,1.761,0,0,1-1.247-3,1.758,1.758,0,0,1,3,1.24A1.759,1.759,0,0,1,69.436,50.622ZM26.395,42.833a9.866,9.866,0,0,0,5.419-.278l4.475-1.627v4.7c-0.286.05-.6,0.1-0.89,0.148a29.375,29.375,0,0,1-13.948-1.124c-4.38-1.23-5.113-3.8-3.114-5.279a21.311,21.311,0,0,1,4.983-2.4l12.965-4.608v5.25l-9.328,3.34C25.3,41.557,25.057,42.4,26.395,42.833ZM72.315,41a10.471,10.471,0,0,1-3.741,2.347L48.8,50.448V45.211L63.35,40.022c1.652-.589,1.908-1.424.566-1.864a9.872,9.872,0,0,0-5.416.276l-9.7,3.417V36.421l0.554-.189A33.537,33.537,0,0,1,56.1,34.8a28.846,28.846,0,0,1,12.551,1.5C72.917,37.644,73.4,39.63,72.315,41ZM50.683,32.086V18.694c0-1.568-.286-3.013-1.767-3.423-1.127-.368-1.826.686-1.826,2.254V51.056L38.04,48.182V8.207A109.16,109.16,0,0,1,50.506,11.62c7.656,2.632,10.253,5.905,10.253,13.277C60.761,32.082,56.323,34.809,50.683,32.086Z" transform="translate(-5.047 0.359)"/>
</svg>
