<svg xmlns="http://www.w3.org/2000/svg" width="80" height="60" viewBox="0 0 80 60">
  <defs>
    <style>
      .cls-1 {
        fill: #fff;
        fill-rule: evenodd;
      }
    </style>
  </defs>
  <path class="cls-1" d="M39.329,20.3a0.108,0.108,0,0,0,.033-0.064,0.1,0.1,0,0,0-.042-0.071c-7.273-7.24-9.218-5.582-9.188-5.605h0a21.473,21.473,0,0,0-2,28.294,0.1,0.1,0,0,0,.116.039,0.09,0.09,0,0,0,.024-0.112C26.634,37.723,35.006,25.448,39.329,20.3Zm20.985-5.739h0s-0.005-.006-0.021-0.02l0.018,0.02c0.026,0.023-1.9-1.646-9.18,5.6a0.1,0.1,0,0,0-.039.074,0.111,0.111,0,0,0,.031.061c4.324,5.146,12.687,17.429,11.05,22.492a0.09,0.09,0,0,0,.025.112,0.1,0.1,0,0,0,.115-0.039A21.474,21.474,0,0,0,60.314,14.565ZM34.067,11.676c3.68-.942,9.525,2.119,11.11,3.03a0.088,0.088,0,0,0,.047.018,0.07,0.07,0,0,0,.043-0.018c0.6-.36,6.922-3.953,11.076-3.053a0.084,0.084,0,0,0,.1-0.038,0.082,0.082,0,0,0-.034-0.106A21.492,21.492,0,0,0,34,11.529a0.087,0.087,0,0,0-.037.108A0.084,0.084,0,0,0,34.067,11.676Zm25.3,34.337-0.005.005h0A0.008,0.008,0,0,1,59.366,46.013ZM45.29,25.628a0.113,0.113,0,0,0-.066-0.032,0.149,0.149,0,0,0-.075.032c-6.42,4.889-17.42,16.975-14.069,20.39a21.476,21.476,0,0,0,28.278,0h0C62.721,42.6,51.718,30.517,45.29,25.628Z" transform="translate(-5.219 0.141)"/>
</svg>
