<svg xmlns="http://www.w3.org/2000/svg" width="80" height="60" viewBox="0 0 80 60">
  <defs>
    <style>
      .cls-1 {
        fill: #fff;
        fill-rule: evenodd;
      }
    </style>
  </defs>
  <path class="cls-1" d="M33.945,17.1a4.034,4.034,0,1,0,4.05,4.1A3.976,3.976,0,0,0,33.945,17.1ZM43.3,8.277q-4.4.005-8.8,0a10.746,10.746,0,0,0-4.758.983c-4.058,1.958-6.364,5.209-6.45,9.706-0.134,7.172-.044,14.349-0.028,21.523a9.948,9.948,0,0,0,.24,1.949,10.6,10.6,0,0,0,3.135,5.646,11.005,11.005,0,0,0,7.847,3.067h8.846c0.541,0,.6-0.055.6-0.6V8.923C43.928,8.3,43.906,8.277,43.3,8.277ZM40.426,47.656c-0.134.011-.253,0.024-0.37,0.024-1.871,0-3.742.008-5.613,0a7.511,7.511,0,0,1-5.282-2,7.16,7.16,0,0,1-2.425-5.337c-0.034-7.066-.015-14.131-0.012-21.195A7.525,7.525,0,0,1,32.75,11.92a10.827,10.827,0,0,1,1.8-.162c1.8-.02,3.605-0.008,5.409-0.008h0.467V47.656ZM66.12,19.576a13.18,13.18,0,0,0-.23-2.433,10.947,10.947,0,0,0-10.6-8.856c-2.152-.033-4.306-0.006-6.46-0.006-0.61,0-.619.009-0.619,0.6V50.425c0,0.728,0,.728.711,0.728,2.073,0,4.145.01,6.218-.005A11.016,11.016,0,0,0,66.13,40.042Q66.133,29.811,66.12,19.576ZM56.425,36.162a4.312,4.312,0,0,1,.312-8.615A4.312,4.312,0,1,1,56.425,36.162Z" transform="translate(-4.672 0.297)"/>
</svg>
