<svg xmlns="http://www.w3.org/2000/svg" width="80" height="60" viewBox="0 0 80 60">
  <defs>
    <style>
      .cls-1 {
        fill: #fff;
        fill-rule: evenodd;
      }
    </style>
  </defs>
  <path class="cls-1" d="M77.43,16.459a43.237,43.237,0,0,1-1.383,5.014c-0.38,1.2-.971,3.927-1.9,4.322-0.912.387-4.126-1.286-5.705-1.9a49.465,49.465,0,0,0-20.4-3.458c-6.8.339-10.9,1.895-16.252,3.977,14.42-1.341,29.183.853,37,7.78-1.031,3.579-1.862,7.358-3.458,10.374-10.85-.194-20.872,1.5-27.317,6.4-1.209.918-1.93,2.233-3.285,2.939-1.133-1.261-1.579-2.923-2.42-4.841-0.606-1.381-2.243-3.645-2.075-5.014,0.255-2.071,5.82-4.224,7.607-5.014a29.488,29.488,0,0,1,9.682-2.767c-9.88-2.161-19.569,1.4-27.317,3.631-2.226-3.185-3.875-7.421-5.705-11.584-0.372-.845-1.592-3.158-1.383-3.977,0.369-1.448,5.495-4.18,6.916-5.014C27.762,12.789,36.06,9.967,47.347,9.2,59.4,8.375,70.636,11.883,77.43,16.459Z" transform="translate(-5.281 -0.484)"/>
</svg>
